<svg xmlns="http://www.w3.org/2000/svg" class="icon" viewBox="0 0 1024 1024"><path fill="#68a240" d="M879.3 794.4H144.7a32.1 32.1 0 0 1-32.1-32.1V261.6a32.1 32.1 0 0 1 32.1-32.1h734.5a32.1 32.1 0 0 1 32.1 32.1v500.7a32 32 0 0 1-32 32.1"/><path fill="#333336" d="M879.3 799.9H144.7a37.6 37.6 0 0 1-37.6-37.6V261.6a37.6 37.6 0 0 1 37.6-37.6h734.5a37.6 37.6 0 0 1 37.6 37.6v500.7a37.5 37.5 0 0 1-37.5 37.6M144.7 235.1a26.7 26.7 0 0 0-26.6 26.6v500.7a26.7 26.7 0 0 0 26.6 26.6h734.5a26.7 26.7 0 0 0 26.6-26.6V261.6a26.7 26.7 0 0 0-26.6-26.6H144.7z"/><path fill="#ffd632" d="m830.4 554.8 29.9-10.2a19 19 0 0 0 12.9-17.9V394.1a19 19 0 0 0-12.9-17.9L830.4 366z"/><path fill="#333336" d="M824.9 562.4V358.3l37.2 12.6a24.5 24.5 0 0 1 16.6 23.1v132.6c0 10.5-6.7 19.8-16.6 23.2zm11-188.7v173.4l22.7-7.7c5.5-1.9 9.1-7 9.1-12.7V394.1c0-5.8-3.7-10.9-9.1-12.7z"/><path fill="#d8a128" d="m830.4 652.2 29.9-10.2a19 19 0 0 0 12.9-17.9V491.6a19 19 0 0 0-12.9-17.9l-29.9-10.2z"/><path fill="#333336" d="M824.9 659.9V455.8l37.2 12.6a24.5 24.5 0 0 1 16.6 23.1v132.6c0 10.5-6.7 19.8-16.6 23.2zm11-188.8v173.4l22.7-7.7c5.5-1.9 9.1-7 9.1-12.7V491.6c0-5.8-3.7-10.9-9.1-12.7z"/><path fill="#ffd632" d="m830.4 719.7 29.9-10.2a19 19 0 0 0 12.9-17.9V589a19 19 0 0 0-12.9-17.9l-29.9-10.2z"/><path fill="#333336" d="M824.9 727.4V553.3l37.2 12.6a24.5 24.5 0 0 1 16.6 23.1v102.6c0 10.5-6.7 19.8-16.6 23.2zm11-158.8V712l22.7-7.7c5.5-1.9 9.1-7 9.1-12.7V589c0-5.8-3.7-10.9-9.1-12.7z"/><path fill="#ffd632" d="m203.1 450.6-38.7-13.8a23.5 23.5 0 0 1-15.7-22.2v-95c0-9.8 8-17.8 17.8-17.8h36.6z"/><path fill="#333336" d="M208.6 458.4 162.5 442a29 29 0 0 1-19.3-27.4v-95a23.3 23.3 0 0 1 23.3-23.3h42.1zm-42.1-151.1c-6.8 0-12.3 5.5-12.3 12.3v95a18 18 0 0 0 12 17l31.4 11.2V307.3z"/><path fill="#d5d9cf" d="M501.3 282.4H199.8a16 16 0 0 0-16.1 16.1v426.9a16 16 0 0 0 16.1 16.1h301.5z"/><path fill="#333336" d="M506.8 747.1h-307a21.6 21.6 0 0 1-21.6-21.6v-427c0-11.9 9.7-21.6 21.6-21.6h307zm-307-459.2c-5.9 0-10.6 4.8-10.6 10.6v426.9c0 5.9 4.8 10.6 10.6 10.6h296V287.9z"/><path fill="#d5d9cf" d="M824.2 282.4H522.7v459.1h301.5a16 16 0 0 0 16.1-16.1V298.5a16 16 0 0 0-16.1-16.1"/><path fill="#333336" d="M824.2 747.1h-307V276.9h307c11.9 0 21.6 9.7 21.6 21.6v426.9c0 12-9.7 21.7-21.6 21.7m-296-11h296c5.9 0 10.6-4.8 10.6-10.6v-427c0-5.9-4.8-10.6-10.6-10.6h-296zM466 392.6a23.9 23.9 0 1 1 0-47.8 23.9 23.9 0 0 1 0 47.8m0-36.8a13 13 0 0 0 0 25.8 13 13 0 0 0 0-25.8"/><path fill="#333336" d="M558.5 392.6a23.9 23.9 0 1 1 0-47.8 23.9 23.9 0 0 1 0 47.8m0-36.8a13 13 0 0 0 0 25.8 13 13 0 0 0 0-25.8M466 460.4a23.9 23.9 0 1 1 0-47.8 23.9 23.9 0 0 1 0 47.8m0-36.8a13 13 0 0 0 0 25.8 13 13 0 0 0 0-25.8m92.5 36.8a23.9 23.9 0 1 1 0-47.8 23.9 23.9 0 0 1 0 47.8m0-36.8a13 13 0 0 0 0 25.8 13 13 0 0 0 0-25.8M466 625.9a23.9 23.9 0 1 1 0-47.8 23.9 23.9 0 0 1 0 47.8m0-36.8a13 13 0 0 0 0 25.8 13 13 0 0 0 0-25.8m92.5 36.8a23.9 23.9 0 1 1 0-47.8 23.9 23.9 0 0 1 0 47.8m0-36.8a13 13 0 0 0 0 25.8 13 13 0 0 0 0-25.8M466 693.7a23.9 23.9 0 1 1 0-47.8 23.9 23.9 0 0 1 0 47.8m0-36.8a13 13 0 0 0 0 25.8 13 13 0 0 0 0-25.8m92.5 36.8a23.9 23.9 0 1 1 0-47.8 23.9 23.9 0 0 1 0 47.8m0-36.8a13 13 0 0 0 0 25.8 13 13 0 0 0 0-25.8"/><path fill="#333336" d="M558.5 374.2H466c-3 0-5.5-2.5-5.5-5.5s2.5-5.5 5.5-5.5h92.5c3 0 5.5 2.5 5.5 5.5s-2.5 5.5-5.5 5.5m0 67.7H466c-3 0-5.5-2.5-5.5-5.5s2.5-5.5 5.5-5.5h92.5c3 0 5.5 2.5 5.5 5.5s-2.5 5.5-5.5 5.5m0 164.7H466c-3 0-5.5-2.5-5.5-5.5s2.5-5.5 5.5-5.5h92.5c3 0 5.5 2.5 5.5 5.5s-2.5 5.5-5.5 5.5m0 69.2H466c-3 0-5.5-2.5-5.5-5.5s2.5-5.5 5.5-5.5h92.5c3 0 5.5 2.5 5.5 5.5s-2.5 5.5-5.5 5.5"/><path fill="#ffd632" d="M373.7 230.1h28.9v562.8h-28.9z"/><path fill="#333336" d="M408.1 798.4h-39.9V224.6h39.9zm-28.9-11h17.9V235.6h-17.9z"/><path fill="#68a240" d="M756.8 426.8v321.4a19.9 19.9 0 1 1-39.8 0V426.8"/><path fill="#333336" d="M736.9 773.6c-14 0-25.4-11.4-25.4-25.4V426.8h11v321.4c0 7.9 6.5 14.4 14.4 14.4s14.4-6.5 14.4-14.4V426.8h11v321.4c0 14-11.4 25.4-25.4 25.4"/><path fill="#ffd632" d="M756.6 428c.1 0 .2-.1.2-.3L746 393.4c-2.3-9.4-15.6-9.4-18 0l-10.9 34.3.2.3z"/><path fill="#333336" d="M756.6 433.5h-39.3a6 6 0 0 1-4.6-2.3 5.5 5.5 0 0 1-.8-5.1l10.8-34.1c1.7-6.6 7.4-11 14.3-11 6.8 0 12.5 4.4 14.3 11l10.8 34.1c.5 1.7.2 3.6-.8 5.1s-2.9 2.3-4.7 2.3m-32.1-11h24.8l-8.8-27.7c-.6-2.6-2.8-2.8-3.6-2.8-.7 0-3 .2-3.6 2.8l-.1.3z"/><path fill="#ffd632" d="M717 702.3h39.8v55c0 9.3-7.5 16.8-16.8 16.8h-6.3c-9.3 0-16.8-7.5-16.8-16.8v-55z"/><path fill="#333336" d="M740.1 779.5h-6.3c-12.3 0-22.3-10-22.3-22.3v-60.5h50.8v60.5c0 12.4-10 22.3-22.2 22.3m-17.6-71.7v49.5c0 6.2 5.1 11.3 11.3 11.3h6.3c6.2 0 11.3-5.1 11.3-11.3v-49.5z"/><path fill="#68a240" d="M729.2 388.1h15.3l-6.8-27.5c-.2-.9-1.5-.9-1.7 0z"/><path fill="#333336" d="M751.6 393.6h-29.4l8.5-34.3c.7-2.9 3.3-4.9 6.2-4.9s5.5 2 6.2 4.9zm-15.3-11h1.3l-.6-2.6z"/></svg>
